<svg xmlns="http://www.w3.org/2000/svg" xmlns:xlink="http://www.w3.org/1999/xlink" viewBox="0 0 64.04344 56.48096"><defs><style>.cls-1{fill:none;}.cls-2{clip-path:url(#clip-path);}.cls-3{fill:#173440;}.cls-4{fill:#e84616;}.cls-4,.cls-5{opacity:0.8;}.cls-5{fill:#4b5463;}.cls-6,.cls-7{fill:#faf2db;}.cls-7{opacity:0.4;}</style><clipPath id="clip-path" transform="translate(0 -4)"><rect class="cls-1" y="0.00001" width="64" height="64"/></clipPath></defs><title>icon</title><g id="background_copia" data-name="background copia"><g class="cls-2"><polygon class="cls-3" points="32.041 56.481 17.801 28.24 3.56 0 32.041 0 60.522 0 46.282 28.24 32.041 56.481"/><polygon class="cls-4" points="37.904 51.838 24.834 25.919 11.764 0 37.904 0 64.043 0 50.974 25.919 37.904 51.838"/><polygon class="cls-5" points="22.58 44.778 11.29 22.389 0 0 22.58 0 45.159 0 33.869 22.389 22.58 44.778"/><path class="cls-6" d="M22.54834,32.23975v-8.646h1.73437v3.08984H25.105V23.59375h1.73389v8.646H25.105V28.31982h-.82227v3.91993Z" transform="translate(0 -4)"/><path class="cls-6" d="M27.374,32.23975l.84229-8.646h2.958l.82714,8.646h-1.6499l-.12353-1.395h-1.0503l-.10937,1.395Zm1.92725-2.77539h.793l-.38184-4.397h-.0791Z" transform="translate(0 -4)"/><path class="cls-6" d="M32.53613,32.23975v-8.646h1.72364v3.46338l.8125-3.46338h1.7539l-.97461,3.95947,1.17774,4.68653H35.2207l-.95117-4.18555v4.18555Z" transform="translate(0 -4)"/><path class="cls-6" d="M39.34277,32.31836a1.9881,1.9881,0,0,1-1.60449-.60693,2.69189,2.69189,0,0,1-.51562-1.78565v-6.332H38.917v6.26367a3.34231,3.34231,0,0,0,.02539.415.70841.70841,0,0,0,.11328.32666.326.326,0,0,0,.28711.12744.33481.33481,0,0,0,.293-.125.68157.68157,0,0,0,.11133-.32666,3.84676,3.84676,0,0,0,.02246-.41748V23.59375h1.69434v6.332a2.69189,2.69189,0,0,1-.51563,1.78565A1.9916,1.9916,0,0,1,39.34277,32.31836Z" transform="translate(0 -4)"/><rect class="cls-7" x="31.27622" y="18.12838" width="1.45237" height="1.44011" rx="0.70473" transform="translate(64.00481 33.69686) rotate(-180)"/></g></g></svg>